<svg width="522" height="143" viewBox="0 0 522 143" fill="none" xmlns="http://www.w3.org/2000/svg">
<path d="M194.377 100.184C189.279 100.184 184.598 98.9608 180.332 96.515C176.067 94.0693 172.686 90.6931 170.189 86.3864C167.692 82.0265 166.443 77.1084 166.443 71.632C166.443 66.2088 167.692 61.3439 170.189 57.0372C172.686 52.6774 176.067 49.2746 180.332 46.8288C184.598 44.383 189.279 43.1602 194.377 43.1602C199.527 43.1602 204.209 44.383 208.422 46.8288C212.688 49.2746 216.043 52.6774 218.488 57.0372C220.985 61.3439 222.233 66.2088 222.233 71.632C222.233 77.1084 220.985 82.0265 218.488 86.3864C216.043 90.6931 212.688 94.0693 208.422 96.515C204.157 98.9608 199.475 100.184 194.377 100.184ZM194.377 90.2145C197.654 90.2145 200.541 89.4702 203.038 87.9815C205.535 86.4396 207.486 84.2596 208.89 81.4417C210.295 78.6237 210.997 75.3539 210.997 71.632C210.997 67.9102 210.295 64.6669 208.89 61.9022C207.486 59.0842 205.535 56.9309 203.038 55.4421C200.541 53.9534 197.654 53.2091 194.377 53.2091C191.1 53.2091 188.187 53.9534 185.638 55.4421C183.141 56.9309 181.191 59.0842 179.786 61.9022C178.382 64.6669 177.679 67.9102 177.679 71.632C177.679 75.3539 178.382 78.6237 179.786 81.4417C181.191 84.2596 183.141 86.4396 185.638 87.9815C188.187 89.4702 191.1 90.2145 194.377 90.2145Z" fill="#7D23E0"/>
<path d="M254.583 100.184C250.786 100.184 247.353 99.5191 244.284 98.1899C241.267 96.8606 238.874 94.9466 237.105 92.4476C235.336 89.9487 234.426 86.9978 234.374 83.595H246.078C246.234 85.8813 247.015 87.689 248.419 89.0182C249.876 90.3475 251.852 91.0121 254.349 91.0121C256.898 91.0121 258.901 90.4006 260.357 89.1777C261.814 87.9017 262.542 86.2535 262.542 84.2331C262.542 82.5848 262.048 81.229 261.059 80.1656C260.071 79.1023 258.823 78.2782 257.314 77.6933C255.858 77.0553 253.829 76.3641 251.228 75.6197C247.691 74.5563 244.804 73.5195 242.567 72.5093C240.382 71.446 238.484 69.8775 236.871 67.8039C235.31 65.6771 234.53 62.8592 234.53 59.3501C234.53 56.0536 235.336 53.1825 236.949 50.7367C238.562 48.2909 240.824 46.43 243.737 45.154C246.65 43.8248 249.98 43.1602 253.725 43.1602C259.343 43.1602 263.894 44.5691 267.38 47.3871C270.917 50.1519 272.868 54.0332 273.232 59.031H261.215C261.111 57.117 260.305 55.5485 258.797 54.3256C257.34 53.0496 255.389 52.4115 252.945 52.4115C250.812 52.4115 249.095 52.9698 247.795 54.0863C246.546 55.2029 245.922 56.8245 245.922 58.9513C245.922 60.44 246.39 61.6895 247.327 62.6997C248.315 63.6567 249.511 64.4543 250.916 65.0923C252.372 65.6771 254.401 66.3683 257.002 67.1659C260.539 68.2292 263.426 69.2926 265.663 70.356C267.9 71.4194 269.825 73.0144 271.437 75.1412C273.05 77.2679 273.856 80.0593 273.856 83.5153C273.856 86.4927 273.102 89.2575 271.593 91.8096C270.085 94.3617 267.874 96.4087 264.961 97.9506C262.048 99.4393 258.589 100.184 254.583 100.184Z" fill="#7D23E0"/>
<path d="M325.808 43.9577V52.9698H311.295V99.6254H300.371V52.9698H285.858V43.9577H325.808Z" fill="#7D23E0"/>
<path d="M350.121 52.9698V66.9266H368.457V75.7792H350.121V90.5336H370.798V99.6254H339.197V43.8779H370.798V52.9698H350.121Z" fill="#7D23E0"/>
<path d="M397.068 90.7728H415.014V99.6254H386.144V43.9577H397.068V90.7728Z" fill="#7D23E0"/>
<path d="M438.299 90.7728H456.246V99.6254H427.376V43.9577H438.299V90.7728Z" fill="#7D23E0"/>
<path d="M493.888 100.184C488.79 100.184 484.109 98.9608 479.843 96.515C475.578 94.0693 472.197 90.6931 469.7 86.3864C467.203 82.0265 465.954 77.1084 465.954 71.632C465.954 66.2088 467.203 61.3439 469.7 57.0372C472.197 52.6774 475.578 49.2746 479.843 46.8288C484.109 44.383 488.79 43.1602 493.888 43.1602C499.038 43.1602 503.72 44.383 507.933 46.8288C512.199 49.2746 515.554 52.6774 517.999 57.0372C520.496 61.3439 521.744 66.2088 521.744 71.632C521.744 77.1084 520.496 82.0265 517.999 86.3864C515.554 90.6931 512.199 94.0693 507.933 96.515C503.668 98.9608 498.986 100.184 493.888 100.184ZM493.888 90.2145C497.165 90.2145 500.052 89.4702 502.549 87.9815C505.046 86.4396 506.997 84.2596 508.401 81.4417C509.806 78.6237 510.508 75.3539 510.508 71.632C510.508 67.9102 509.806 64.6669 508.401 61.9022C506.997 59.0842 505.046 56.9309 502.549 55.4421C500.052 53.9534 497.165 53.2091 493.888 53.2091C490.611 53.2091 487.698 53.9534 485.149 55.4421C482.652 56.9309 480.702 59.0842 479.297 61.9022C477.893 64.6669 477.19 67.9102 477.19 71.632C477.19 75.3539 477.893 78.6237 479.297 81.4417C480.702 84.2596 482.652 86.4396 485.149 87.9815C487.698 89.4702 490.611 90.2145 493.888 90.2145Z" fill="#7D23E0"/>
<path d="M142.274 71.6701C142.274 110.789 110.562 142.501 71.4426 142.501C32.3237 142.501 0.61145 110.789 0.61145 71.6701C0.61145 32.5511 32.3237 0.838867 71.4426 0.838867C110.562 0.838867 142.274 32.5511 142.274 71.6701Z" fill="#7D23E0"/>
<path fill-rule="evenodd" clip-rule="evenodd" d="M71.4395 109.098C92.1094 109.098 108.866 92.3415 108.866 71.6716C108.866 51.0018 92.1094 34.2455 71.4395 34.2455C50.7696 34.2455 34.0134 51.0018 34.0134 71.6716C34.0134 92.3415 50.7696 109.098 71.4395 109.098ZM71.4395 122.229C99.3614 122.229 121.997 99.5935 121.997 71.6716C121.997 43.7498 99.3614 21.1146 71.4395 21.1146C43.5176 21.1146 20.8824 43.7498 20.8824 71.6716C20.8824 99.5935 43.5176 122.229 71.4395 122.229Z" fill="white"/>
<path d="M19.4763 75.0119L14.0859 64.229H78.5012V128.388L66.9118 123.535V75.0119H19.4763Z" fill="white"/>
<path fill-rule="evenodd" clip-rule="evenodd" d="M46.293 79.2434H14.4703V74.9506H46.293V79.2434Z" fill="#7D23E0"/>
<path fill-rule="evenodd" clip-rule="evenodd" d="M45.9086 64.2265H14.0859V59.9337H45.9086V64.2265Z" fill="#7D23E0"/>
<path fill-rule="evenodd" clip-rule="evenodd" d="M78.5036 128.387L78.5036 106.188L82.7964 106.188L82.7964 128.387L78.5036 128.387Z" fill="#7D23E0"/>
<path fill-rule="evenodd" clip-rule="evenodd" d="M62.5897 125.821L62.5897 103.622L66.8825 103.622L66.8825 125.821L62.5897 125.821Z" fill="#7D23E0"/>
</svg>
