<svg width="27" height="24" viewBox="0 0 27 24" fill="none" xmlns="http://www.w3.org/2000/svg">
<path d="M0.579663 19.5064C-0.56848 21.5064 0.875299 24 3.18142 24H23.8186C26.1247 24 27.5685 21.5064 26.4203 19.5064L16.1018 1.5321C14.9487 -0.476428 12.0513 -0.476433 10.8982 1.5321L0.579663 19.5064ZM14.9091 18.3158C14.9091 19.094 14.2782 19.7368 13.5 19.7368C12.7218 19.7368 12.0909 19.094 12.0909 18.3158C12.0909 17.5376 12.7218 16.8947 13.5 16.8947C14.2782 16.8947 14.9091 17.5376 14.9091 18.3158ZM14.9091 12.6435C14.9091 13.4218 14.2782 14.0526 13.5 14.0526C12.7218 14.0526 12.0909 13.4218 12.0909 12.6435V9.77751C12.0909 8.99929 12.7218 8.36842 13.5 8.36842C14.2782 8.36842 14.9091 8.99929 14.9091 9.77751V12.6435Z" fill="#F2747F"/>
</svg>
